<svg xmlns="http://www.w3.org/2000/svg" xmlns:xlink="http://www.w3.org/1999/xlink" width="149.74" height="24.493" viewBox="0 0 149.74 24.493"><defs><style>.a{fill:none;}.b{clip-path:url(#a);}.c{fill:#fff;}.d{fill:red;}</style><clipPath id="a"><rect class="a" width="149.74" height="24.493"/></clipPath></defs><g transform="translate(641.96 -141.594)"><g class="b" transform="translate(-641.96 141.594)"><path class="c" d="M14.716,11.312,10.382,28.536H41.576l4.333-17.224Z" transform="translate(-10.382 -11.312)"/><path class="d" d="M77.48,13.151h-.066l-4.1,16.31H88.4l4.1-16.31Z" transform="translate(-57.704 -12.695)"/><path d="M17.256,13.151l-4.1,16.31H28.073l4.1-16.31Z" transform="translate(-12.464 -12.695)"/><path class="c" d="M93.633,42.682a5.127,5.127,0,0,1-.487,1.49A2.884,2.884,0,0,1,90.734,45.6a8.127,8.127,0,0,1-1.07.043l2.445,3.469H88.484l-3.394-4.828,3.264-.009c.707,0,1.639-.208,1.9-.7a1.489,1.489,0,0,0,.192-.661c0-.328-.315-.6-.857-.6H84.28l-1.683,6.7H79.169l2.153-8.354,9.82,0c1.838,0,2.7.923,2.49,2.023" transform="translate(-62.107 -33.38)"/><path class="c" d="M34.193,43.973l-5.648.007-.531,1.584h2.807L30.365,47.1H25.84c-.987,0-1.4-.24-1.3-.933a10.3,10.3,0,0,1,.676-2.181c.543-1.474,1.329-1.849,4.6-1.849h4.9l.52-1.657-5.883,0c-4.8,0-6.434.563-7.35,2.906a20.36,20.36,0,0,0-.985,3.475c-.244,1.427.859,1.982,2.034,2.022,1.622.054,9.766.028,9.766.028Z" transform="translate(-18.347 -33.239)"/><path d="M274.652,26.482c-1.87.11-7.665.59-10.653.518-2.364-.056-4.488.16-4.548-1.475-.034-.922,1.142-1.73,1.556-2.512.171-.324.064-.567-.319-.4-1.191.522-2.062.881-2.314,1-.291.134-.265-.051-.279-.4-.079-1.929-2.484-2.756-4.988-2.472a21.7,21.7,0,0,0-7.62,2.592c-.378.2-.336.031-.479-.2a2.683,2.683,0,0,0-.6-.718c-.375-.279-.576-.315-1.2,0a16.282,16.282,0,0,1-4.189,1.515c-.251.01-.269-.068-.279-.558a.854.854,0,0,0-.878-.917,2.158,2.158,0,0,0-1.117.4,62.947,62.947,0,0,1-6.583,3.35c-.343.12-.193-.057-.04-.279,1.148-1.664,1.221-3.964-2.035-3.589a28.8,28.8,0,0,0-7.98,1.994c-.395.164-.491.1-.638-.12a3.786,3.786,0,0,0-.319-.4c-.152-.185-.566-.181-.878-.08a25.738,25.738,0,0,0-5.227,2.871c-.938.669-1.359.216-1.436-.159-.374-1.824-.662-3.764-2.953-3.908a7.063,7.063,0,0,1-5.865,4.745c-.823.1-1.111-.413-1.516-1.834-.633-2.22-1.177-2.258-1.6-2.273a16.82,16.82,0,0,1-2.879,3.357c-.149.135-.286.057-.393-.127-1-1.738-6.428-3.8-14.6-6.38-1-.316-1.347-.64-1.077-.957.324-.381,1.367-.277,1.8-.239a49.482,49.482,0,0,1,8.658,1.715c.679.2,1.9.67,2.514.8.745.156.69-.249.439-.558a6.557,6.557,0,0,0-2.873-1.994c-.52-.105-1.153-.109-2.194-.319-1.521-.306-7.224-1.236-9.656-1.4-1.06-.07-3.452-.155-3.95,1-.364.842.13,1.4,1.977,2.124,3.178,1.239,5.2,2.013,7.519,3.139,2.193,1.064,2.166,2.2,1.077,2.632a11.69,11.69,0,0,1-3.591.4c-5.946.169-11.478.229-18.114.2-.587,0-.6.365-.279.718.595.649,1.688.889,3.312,1.117,2.511.35,3.763.734,5.346,1.954a1.9,1.9,0,0,0,1.277.4c1.811.026,3.1.07,6.224.08,11.266.032,15.066-.56,16.718-2.712.321-.171.575-.281,1.038-.478.274-.117.3,0,.319.359.132,2.136,1.419,2.753,3.032,2.752a19.329,19.329,0,0,0,5.985-1.4c.28-.1.382-.023.6.16a4.035,4.035,0,0,0,1.835.758c.716.019,1.529-1.273,3.99-2.672.438-.249.461-.276.319.08a10.492,10.492,0,0,0-.678,3.788,13.019,13.019,0,0,0,3.152,8.414c.283.3.6.343.559-.12a37.208,37.208,0,0,1,.08-3.828,1.6,1.6,0,0,0-.08-.8c-.389-1.1-.506-4.02.519-5.423.092-.126.175-.168.519-.04a15.69,15.69,0,0,0,4.788,1.2c1.892,0,3.237-.858,6.157-2.823a21.221,21.221,0,0,1,2.1-1.005c.328-.157.459-.129.319.08a5.978,5.978,0,0,0-.638,3.469c.042.377.418.7.678.519a16.815,16.815,0,0,1,3.79-1.874c.286-.1.354-.5.4-.678.533-2.085,2.662-3.115,5.267-2.791.367.046.516.036.159.319a3.974,3.974,0,0,0-1.476,2.193c-.007,1.245,1.19,2.208,3.79,2.273A23.022,23.022,0,0,0,255.461,27c.425-.257.364-.2.239.239a1.764,1.764,0,0,0,.6,2.034c1.36.9,4.664,1.3,9.1,1.276a2.8,2.8,0,0,0,2.075-.638A7.421,7.421,0,0,1,272.179,28a5.745,5.745,0,0,0,2.992-.877C275.879,26.42,275.4,26.438,274.652,26.482Zm-48.637.4a5.525,5.525,0,0,1-3.391,1.236,20.634,20.634,0,0,1-3.272-.439c-.218-.034-.094-.217.16-.4a16.234,16.234,0,0,1,6.623-1.954c.511-.008.789.11.758.439A2.481,2.481,0,0,1,226.015,26.881Zm28.879-2.054a.455.455,0,0,1-.294.292c-2.16,1.054-7.466,2.415-8.755,2.241-.289-.039-.528-.106-.519-.2.177-1.225,4.415-3.43,6.743-4.068C254.825,22.338,255.3,23.962,254.895,24.826Z" transform="translate(-125.778 -15.616)"/></g></g></svg>