<svg xmlns="http://www.w3.org/2000/svg" xmlns:xlink="http://www.w3.org/1999/xlink" width="230.051" height="37.629" viewBox="0 0 230.051 37.629"><defs><style>.a{fill:none;}.b{clip-path:url(#a);}.c{fill:#fff;}.d{fill:red;}</style><clipPath id="a"><rect class="a" width="230.051" height="37.629"/></clipPath></defs><g transform="translate(6 -210)"><g class="b" transform="translate(-6 210)"><g transform="translate(0 0)"><path class="c" d="M17.041,11.312,10.382,37.774H58.306l6.658-26.462Z" transform="translate(-10.382 -11.312)"/><path class="d" d="M79.714,13.151h-.1l-6.3,25.058H96.5l6.3-25.058Z" transform="translate(-49.332 -12.451)"/><path d="M19.457,13.151,13.151,38.209H36.076l6.3-25.058Z" transform="translate(-12.096 -12.451)"/><path class="c" d="M101.39,43.767a7.876,7.876,0,0,1-.748,2.29,4.43,4.43,0,0,1-3.705,2.188,12.485,12.485,0,0,1-1.644.067L99.05,53.64H93.48l-5.214-7.417s4.54-.013,5.015-.013c1.086,0,2.518-.319,2.924-1.068a2.288,2.288,0,0,0,.3-1.015c.006-.5-.484-.929-1.317-.929l-8.163,0L84.436,53.5H79.169l3.308-12.834,15.087,0c2.824,0,4.148,1.419,3.826,3.108" transform="translate(-52.956 -29.476)"/><path class="c" d="M41.282,45.851l-8.677.01-.816,2.433H36.1l-.7,2.355H28.45c-1.517,0-2.155-.369-2-1.434a15.817,15.817,0,0,1,1.038-3.351c.835-2.265,2.041-2.84,7.068-2.84h7.52l.8-2.545s-7.171-.007-9.039-.007c-7.367,0-9.885.865-11.293,4.465a31.279,31.279,0,0,0-1.514,5.339c-.375,2.193,1.32,3.044,3.124,3.106,2.492.083,15,.043,15,.043Z" transform="translate(-16.938 -29.36)"/></g><path class="c" d="M334.084,31.548c-2.873.168-11.775.906-16.367.8-3.632-.086-6.9.246-6.988-2.267-.052-1.416,1.755-2.658,2.391-3.86.263-.5.1-.871-.49-.612-1.829.8-3.169,1.353-3.555,1.532-.448.206-.407-.079-.429-.613-.121-2.964-3.817-4.234-7.662-3.8a33.337,33.337,0,0,0-11.708,3.982c-.581.307-.516.048-.736-.306a4.121,4.121,0,0,0-.92-1.1c-.576-.429-.886-.484-1.839,0-1.936.982-5.268,2.282-6.436,2.328-.385.015-.413-.105-.429-.858a1.312,1.312,0,0,0-1.349-1.409,3.316,3.316,0,0,0-1.716.612,96.709,96.709,0,0,1-10.114,5.146c-.526.185-.3-.087-.061-.429,1.763-2.557,1.875-6.091-3.126-5.514a44.251,44.251,0,0,0-12.26,3.063c-.607.253-.754.148-.981-.184a5.817,5.817,0,0,0-.49-.612c-.233-.285-.869-.277-1.349-.123a39.542,39.542,0,0,0-8.03,4.411c-1.441,1.028-2.089.332-2.207-.245-.574-2.8-1.017-5.783-4.536-6a10.852,10.852,0,0,1-9.011,7.291c-1.264.151-1.707-.635-2.329-2.818-.972-3.411-1.808-3.468-2.452-3.492a25.843,25.843,0,0,1-4.423,5.158c-.229.208-.44.088-.6-.2-1.538-2.67-9.876-5.833-22.435-9.8-1.538-.486-2.069-.984-1.655-1.471.5-.586,2.1-.425,2.758-.367a76.022,76.022,0,0,1,13.3,2.634c1.043.305,2.925,1.029,3.862,1.225,1.145.24,1.06-.383.674-.858a10.074,10.074,0,0,0-4.414-3.063c-.8-.162-1.772-.168-3.371-.49-2.336-.471-11.1-1.9-14.835-2.144-1.628-.107-5.3-.238-6.068,1.532-.559,1.293.2,2.158,3.037,3.264,4.882,1.9,7.986,3.093,11.552,4.823,3.369,1.634,3.327,3.373,1.655,4.043-.843.338-2.245.524-5.517.613-9.135.259-17.635.351-27.829.306-.9,0-.926.561-.429,1.1.913,1,2.593,1.367,5.088,1.716,3.858.538,5.782,1.127,8.214,3a2.919,2.919,0,0,0,1.961.613c2.783.04,4.758.108,9.563.122,17.308.05,23.147-.861,25.684-4.166.494-.263.884-.432,1.594-.735.421-.18.456,0,.49.551.2,3.281,2.179,4.23,4.659,4.228a29.7,29.7,0,0,0,9.195-2.145c.43-.151.587-.035.92.245a6.2,6.2,0,0,0,2.82,1.164c1.1.029,2.349-1.956,6.13-4.1.673-.382.708-.425.49.123a16.12,16.12,0,0,0-1.042,5.82c.022,3.215,1.047,8.856,4.843,12.926.435.466.927.527.858-.184a57.168,57.168,0,0,1,.122-5.881,2.451,2.451,0,0,0-.122-1.226c-.6-1.7-.777-6.177.8-8.332.141-.193.269-.259.8-.061a24.106,24.106,0,0,0,7.356,1.838c2.907,0,4.973-1.318,9.459-4.337a32.6,32.6,0,0,1,3.23-1.544c.5-.242.7-.2.49.123a9.184,9.184,0,0,0-.98,5.33c.065.579.642,1.073,1.042.8a25.834,25.834,0,0,1,5.824-2.88c.44-.16.544-.772.613-1.041.819-3.2,4.09-4.785,8.092-4.288.564.07.793.056.245.49a6.1,6.1,0,0,0-2.268,3.37c-.011,1.912,1.829,3.393,5.823,3.492,5.591.139,12.278-1.727,18.451-5.453.654-.394.56-.309.367.368a2.71,2.71,0,0,0,.92,3.124c2.089,1.382,7.166,2,13.976,1.961a4.3,4.3,0,0,0,3.187-.98c2.944-2.244,3.932-2.534,7.233-2.941,1.706-.173,3.756-.516,4.6-1.347C335.969,31.453,335.234,31.481,334.084,31.548Zm-74.722.613a8.488,8.488,0,0,1-5.21,1.9,31.7,31.7,0,0,1-5.027-.674c-.335-.052-.145-.333.245-.613,2.245-1.607,7.882-2.966,10.176-3,.785-.013,1.213.168,1.165.674A3.811,3.811,0,0,1,259.362,32.161ZM303.73,29a.7.7,0,0,1-.452.448c-3.318,1.619-11.471,3.71-13.451,3.443-.444-.06-.811-.163-.8-.306.271-1.882,6.782-5.27,10.359-6.249C303.622,25.182,304.354,27.677,303.73,29Z" transform="translate(-105.363 -14.855)"/></g></g></svg>