<svg xmlns="http://www.w3.org/2000/svg" width="106" height="13" viewBox="0 0 106 13"><defs><style>.a,.b{fill:#fff;}.a{font-size:12px;font-family:CeraPro-Medium, Cera Pro;font-weight:500;}</style></defs><g transform="translate(-230 -54)"><text class="a" transform="translate(248 64)"><tspan x="0" y="0">Visit Supra web</tspan></text><g transform="translate(230 55)"><path class="b" d="M10.987,5.133A5.5,5.5,0,0,0,5.867.012V0H5.133V.012A5.5,5.5,0,0,0,.012,5.133H0v.733H.012a5.5,5.5,0,0,0,5.121,5.12V11h.733v-.013a5.5,5.5,0,0,0,5.12-5.12H11V5.133ZM3.443,1.2a5.83,5.83,0,0,0-.862,1.734h-1.1A4.792,4.792,0,0,1,3.443,1.2ZM1.1,3.667H2.388a8.709,8.709,0,0,0-.18,1.467H.747A4.725,4.725,0,0,1,1.1,3.667Zm-.351,2.2h1.46a8.709,8.709,0,0,0,.18,1.467H1.1A4.725,4.725,0,0,1,.747,5.867Zm.735,2.2h1.1A5.814,5.814,0,0,0,3.443,9.8,4.787,4.787,0,0,1,1.482,8.067ZM5.133,10.22a3.1,3.1,0,0,1-1.8-2.153h1.8Zm0-2.886h-2a8.2,8.2,0,0,1-.19-1.467H5.133Zm0-2.2H2.941a8.2,8.2,0,0,1,.19-1.467h2Zm0-2.2h-1.8A3.1,3.1,0,0,1,5.133.781Zm4.385,0h-1.1A5.815,5.815,0,0,0,7.557,1.2,4.8,4.8,0,0,1,9.518,2.933ZM5.867.781a3.1,3.1,0,0,1,1.8,2.152h-1.8Zm0,2.886h2a8.262,8.262,0,0,1,.191,1.467H5.867Zm0,2.2H8.059a8.129,8.129,0,0,1-.191,1.467h-2Zm0,4.353V8.067h1.8A3.1,3.1,0,0,1,5.867,10.22ZM7.557,9.8a5.859,5.859,0,0,0,.864-1.734h1.1A4.791,4.791,0,0,1,7.557,9.8ZM9.9,7.333H8.612a8.709,8.709,0,0,0,.18-1.467h1.459A4.7,4.7,0,0,1,9.9,7.333Zm-1.109-2.2a8.709,8.709,0,0,0-.18-1.467H9.9a4.725,4.725,0,0,1,.351,1.467Z"/></g></g></svg>