<svg xmlns="http://www.w3.org/2000/svg" width="30.361" height="24.289" viewBox="0 0 30.361 24.289"><defs><style>.a{fill:#fff;}</style></defs><g transform="translate(0 -10)"><g transform="translate(0 10)"><path class="a" d="M15.181,19.108a4.554,4.554,0,1,0,4.554,4.554A4.554,4.554,0,0,0,15.181,19.108Zm12.145-4.554H23.682a1.352,1.352,0,0,1-1.2-.864l-.942-2.826a1.353,1.353,0,0,0-1.2-.864H10.019a1.352,1.352,0,0,0-1.2.864L7.878,13.69a1.353,1.353,0,0,1-1.2.864H3.036A3.045,3.045,0,0,0,0,17.59V31.253a3.045,3.045,0,0,0,3.036,3.036H27.325a3.045,3.045,0,0,0,3.036-3.036V17.59A3.045,3.045,0,0,0,27.325,14.554Zm-12.145,16.7a7.59,7.59,0,1,1,7.59-7.59A7.59,7.59,0,0,1,15.181,31.253ZM26.263,19.713a1.063,1.063,0,1,1,1.063-1.063A1.063,1.063,0,0,1,26.263,19.713Z" transform="translate(0 -10)"/></g></g></svg>