<svg id="Layer_1" data-name="Layer 1" xmlns="http://www.w3.org/2000/svg" viewBox="0 0 572.78 172.55"><defs><style>.cls-1{fill:red;}</style></defs><title>R&amp;amp;T_newLOGOsingle-NOWHITECIRCLE</title><path class="cls-1" d="M585.65,292.63H544v33.05c15.19,1.95,26.82,12.93,26.82,26.19S559.15,376.11,544,378.06v11.5h41.69Z" transform="translate(-24 -292.63)"/><polygon points="36.27 171.5 57.83 171.5 57.83 123.23 94.1 123.23 94.1 107.02 0 107.02 0 123.23 36.27 123.23 36.27 171.5"/><path d="M211,423.48c0,6.48-2.1,7.71-10,7.71H167V415.68H200.8c7.89,0,10.16,1.32,10.16,7.8m21.65-1c0-18.66-12.45-22.87-29.88-22.87H146v64.48H167v-19h23.66l22.6,19h26.2l-25.93-21.81c11.65-2.1,19.1-8.24,19.1-19.8" transform="translate(-24 -292.63)"/><path d="M321.27,439.17H292.18l14.55-23.49Zm39.52,25-40.48-64.92H294.9l-40.48,64.92h22.25l6.05-9.72h48l6,9.72Z" transform="translate(-24 -292.63)"/><path d="M424.17,465.19c21.73,0,35.58-2.63,42.32-4.65V444.48c-17.09,3.43-28.66,4.94-42.24,4.94-17,0-22.17-1.84-22.17-17.7s5.35-17.09,22.08-17.09c15.51,0,28.68,2.27,42.33,5.26V403c-6.22-2-25-4.82-42.23-4.82-30.84,0-45.47,6.31-45.47,33.73s14.46,33.3,45.38,33.3" transform="translate(-24 -292.63)"/><polygon points="498.57 143.99 533.44 171.5 562.79 171.5 515.13 133.91 559.29 107.02 530.46 107.02 489.72 131.81 489.72 107.02 468.52 107.02 468.52 171.5 489.72 171.5 489.72 149.34 498.57 143.99"/><path d="M88.92,349c0,6.49-2.1,7.71-10,7.71h-34v-15.5H78.76c7.89,0,10.16,1.31,10.16,7.79m21.64-1c0-18.66-12.44-22.87-29.87-22.87H24v64.49H44.94v-19H68.6l22.6,19h26.2L91.46,367.85c11.66-2.1,19.1-8.23,19.1-19.8" transform="translate(-24 -292.63)"/><path d="M219.73,357.42c0,16.74-6.4,18-29.88,18-23.13,0-29.7-1.4-29.7-18.14s6.57-17.52,29.52-17.52,30.06.87,30.06,17.69m23.3-.17c0-28.3-16.47-34-53.18-34s-53,5.87-53,34.17,16.12,33.74,52.83,33.74S243,385.55,243,357.25" transform="translate(-24 -292.63)"/><path d="M321.27,364.7H292.18l14.55-23.48Zm39.52,25-40.48-64.92H294.9l-40.48,64.92h22.25l6.05-9.73h48l6,9.73Z" transform="translate(-24 -292.63)"/><path d="M452.66,357.42c0,15.95-7,17-25.05,17H403.77v-33.2h23.84c17.87,0,25.05.17,25.05,16.2m23.31-.17c0-28.3-17.52-32.07-48.28-32.07H382.13v64.49h45.56c30.76,0,48.28-4.12,48.28-32.42" transform="translate(-24 -292.63)"/><path d="M553.39,342.06a2.27,2.27,0,0,0-2.32,2.29,2.33,2.33,0,0,0,2.32,2.3,1.88,1.88,0,0,0,1.94-1.63c0,3-3,3-3.88,3l-4.2-.05c-7.34,0-11.12,4.05-11.12,9.44a8.54,8.54,0,0,0,3.68,6.94,9,9,0,0,0,5.56,1.83h.12a4.93,4.93,0,0,0,5-4.84,4.85,4.85,0,1,0-9.61.87,5.2,5.2,0,0,1-1.57-3.36c-.25-3.32,1.94-6.54,7-6.54,3.92,0,8.68,3.16,8.68,8,0,5.6-4.72,9.11-13,9.11-7.56-.27-11.72-5.11-11.72-11.24,0-2.42,1.09-7.58,6.07-9.14l1.07-.24v-1.65l-1.07-.19c-3-.59-4.16-2.95-4.16-5.78a6.57,6.57,0,0,1,6.89-7c5.33,0,6.86,2.42,6.87,4.41a4.59,4.59,0,0,1-.38,2l-.12.18a3.86,3.86,0,0,0-7.71,0,3.88,3.88,0,0,0,2.79,3.71,7.17,7.17,0,0,0,2,.26c3.87,0,5.75-2.41,5.75-6,0-4.87-3.66-6.61-9.46-6.91-7.28-.4-14.59,2-14.59,9.24,0,1.06.13,5,3.87,6.82-3.84,1.24-7.78,4.34-7.6,10.95.35,8.93,8.26,12.67,21.55,12.67,13.57-.21,15.31-7.54,15.31-11.31a11.51,11.51,0,0,0-3.65-8.6,7.53,7.53,0,0,0,1.78-1.21,5.5,5.5,0,0,0,1.79-4.55,4.13,4.13,0,0,0-2.59-3.7,4.57,4.57,0,0,0-1.13-.17" transform="translate(-24 -292.63)"/><path d="M593,464.37c-2.31,0-3.75-1.31-3.81-3a8.86,8.86,0,0,1,0-1c.12-1.8,1.6-3,3.79-3s3.64,1.17,3.78,3a6.67,6.67,0,0,1,0,1C596.66,463.11,595.26,464.37,593,464.37Zm3.31-3.91c-.1-1.71-1.39-2.67-3.32-2.67s-3.25.81-3.33,2.62c0,.23,0,.72,0,.83.05,1.67,1.36,2.69,3.33,2.69s3.25-1.06,3.32-2.69A5.07,5.07,0,0,0,596.3,460.46ZM593.94,463l-.87-1.6h-.89V463h-1v-4.15h2.31a2.09,2.09,0,0,1,1.23.33,1.15,1.15,0,0,1,.37.88,1.28,1.28,0,0,1-.3.89,1.31,1.31,0,0,1-.68.32l1,1.73Zm-.6-3.34h-1.16v1h1.17c.48,0,.66-.27.66-.51S593.8,459.63,593.34,459.63Z" transform="translate(-24 -292.63)"/><path class="cls-1" d="M507.46,351.87c0-13.23,11.58-24.19,26.72-26.18V292.63H492.49v96.93h41.69V378C519,376.06,507.46,365.1,507.46,351.87Z" transform="translate(-24 -292.63)"/></svg>