<svg xmlns="http://www.w3.org/2000/svg" width="18.25" height="14.812" viewBox="0 0 18.25 14.812"><defs><style>.a{fill:red;}</style></defs><g transform="translate(0 0)"><path class="a" d="M0,50.683v8.052a2.228,2.228,0,0,0,2.227,2.227h13.8a2.228,2.228,0,0,0,2.227-2.227V50.683a2.12,2.12,0,0,0-2.119-2.119H13.166l-.071-.309a2.707,2.707,0,0,0-2.652-2.1H7.8a2.713,2.713,0,0,0-2.652,2.1l-.071.309H2.119A2.123,2.123,0,0,0,0,50.683Zm5.445-1.207a.454.454,0,0,0,.443-.354l.153-.663a1.8,1.8,0,0,1,1.762-1.4h2.641a1.8,1.8,0,0,1,1.762,1.4l.153.663a.458.458,0,0,0,.443.354h3.326a1.206,1.206,0,0,1,1.207,1.207v8.052a1.315,1.315,0,0,1-1.315,1.315H2.227A1.315,1.315,0,0,1,.912,58.735V50.683a1.206,1.206,0,0,1,1.207-1.207Z" transform="translate(0 -46.15)"/><circle class="a" cx="0.611" cy="0.611" r="0.611" transform="translate(2.477 4.663)"/><path class="a" d="M145.932,182.815a3.832,3.832,0,1,0-3.832-3.832A3.839,3.839,0,0,0,145.932,182.815Zm0-6.752a2.92,2.92,0,1,1-2.92,2.92A2.925,2.925,0,0,1,145.932,176.063Z" transform="translate(-136.808 -170.346)"/></g></svg>