<svg xmlns="http://www.w3.org/2000/svg" width="20.343" height="21.696" viewBox="0 0 20.343 21.696"><defs><style>.a{opacity:0.78;}.b{fill:red;}</style></defs><g class="a" transform="translate(0 0)"><g transform="translate(0 0)"><g transform="translate(0 0)"><path class="b" d="M99.569,23.6a7.587,7.587,0,0,0-3.414,14.362v4.519a1.981,1.981,0,0,0,1.979,1.979H101a1.981,1.981,0,0,0,1.979-1.979V37.958A7.586,7.586,0,0,0,99.569,23.6Zm.59,13.861c-.194.018-.391.028-.59.028s-.4-.01-.59-.028a9.67,9.67,0,0,0-.6-4.04h2.383A9.673,9.673,0,0,0,100.159,37.457Zm1.538,3.707H97.441v-2.7a7.594,7.594,0,0,0,4.256,0Zm0,1.313a.693.693,0,0,1-.692.692H98.134a.693.693,0,0,1-.692-.692V42.45H101.7Zm-.259-5.276a7.052,7.052,0,0,1,.931-4.055.643.643,0,0,0-.523-1.017H97.293a.643.643,0,0,0-.523,1.017A7.053,7.053,0,0,1,97.7,37.2a6.3,6.3,0,1,1,3.738,0Z" transform="translate(-89.398 -22.759)"/><path class="b" d="M20.948,2.771a.643.643,0,0,0,.909-.909L20.184.189a.643.643,0,0,0-.91.909Z" transform="translate(-19.087 0)"/><path class="b" d="M510.085,2.958a.641.641,0,0,0,.455-.188L512.213,1.1a.643.643,0,0,0-.91-.91L509.63,1.86a.643.643,0,0,0,.455,1.1Z" transform="translate(-492.058 0.001)"/><path class="b" d="M510.541,391.952a.643.643,0,1,0-.909.909l1.673,1.673a.643.643,0,1,0,.909-.909Z" transform="translate(-492.059 -377.875)"/><path class="b" d="M20.948,391.951l-1.673,1.673a.643.643,0,1,0,.909.909l1.673-1.673a.643.643,0,1,0-.909-.91Z" transform="translate(-19.087 -377.874)"/></g></g></g></svg>