<svg xmlns="http://www.w3.org/2000/svg" width="17.623" height="17.834" viewBox="0 0 17.623 17.834"><defs><style>.a{fill:#ff4a53;}</style></defs><path class="a" d="M32.183,23.852c-.036-.149-.065-.3-.091-.467a17.832,17.832,0,0,0-2.18-5.113l-1.2-2a1.762,1.762,0,0,0-3.157.253,1.947,1.947,0,0,0-.386-.146,1.749,1.749,0,0,0-2,.905,1.772,1.772,0,0,0-1.973-.1,1.742,1.742,0,0,0-.568.574L18.2,13.7a1.768,1.768,0,0,0-2.44-.607l-.214.127a1.775,1.775,0,0,0-.61,2.43l3.718,6.2a2.518,2.518,0,0,0-1.139,1.421A2.753,2.753,0,0,0,18.1,25.6a13.134,13.134,0,0,0,4.617,3.932,5.43,5.43,0,0,1,.535.324,5.133,5.133,0,0,0,2.764.814,4.867,4.867,0,0,0,2.43-.649l1.4-.808A4.9,4.9,0,0,0,32.183,23.852ZM29.36,28.358l-1.4.808a4.027,4.027,0,0,1-4.186-.146l-.26.415.227-.428c-.149-.094-.324-.2-.545-.324a12.109,12.109,0,0,1-4.3-3.64,1.869,1.869,0,0,1-.445-1.512,1.561,1.561,0,0,1,.7-.844l1.126,1.882.834-.5-1.084-1.817h0l-4.247-7.093a.8.8,0,0,1,.276-1.093l.214-.13a.8.8,0,0,1,1.093.279l3.245,5.4h0l.866,1.447.834-.5-.863-1.447a.8.8,0,0,1,.276-1.093.814.814,0,0,1,.61-.088.785.785,0,0,1,.483.36l.406.711.461.775.837-.5-.457-.775a.8.8,0,1,1,1.366-.818l.24.4h0l.389.649.834-.5-.386-.649a.8.8,0,0,1,.286-1.087.818.818,0,0,1,.61-.088.788.788,0,0,1,.474.376l1.158,1.947h0l.075.123h0a17.43,17.43,0,0,1,2.018,4.711c.029.178.065.354.1.522a3.929,3.929,0,0,1-1.869,4.273Z" transform="translate(-14.687 -12.835)"/></svg>