<svg xmlns="http://www.w3.org/2000/svg" width="18.799" height="25.072" viewBox="0 0 18.799 25.072"><defs><style>.a{fill:#ff4a53;}</style></defs><g transform="translate(0 0.004)"><g transform="translate(0 -0.004)"><path class="a" d="M16.787,15.825v-.348h.842A1.171,1.171,0,0,0,18.8,14.3v-.77a1.171,1.171,0,0,0-1.171-1.168h-.842v-.348a1.171,1.171,0,0,0-1.168-1.168h-3.96l.122-.238H13.1a1.178,1.178,0,0,0,1.054-.658L17.089,3.9a1.163,1.163,0,0,0-.541-1.562L11.956.114a1.166,1.166,0,0,0-1.562.544L7.465,6.7A1.175,1.175,0,0,0,7.6,7.936l.825,1.035-.911,1.876H5.29a1.168,1.168,0,0,0-1.156,1.047H3.39a1.163,1.163,0,0,0-1.106.813H.9a.9.9,0,0,0-.9.9v.637a.9.9,0,0,0,.9.9H2.284a1.168,1.168,0,0,0,1.106.813h.744A1.168,1.168,0,0,0,5.29,17h2.2v.677a1.323,1.323,0,0,0,1.335,1.321h2.146l2.384,5.379a1.159,1.159,0,0,0,.739.648,1.111,1.111,0,0,0,.329.048,1.192,1.192,0,0,0,.644-.191l3.087-2.034a1.161,1.161,0,0,0,.358-1.578l-2.613-4.308a1.171,1.171,0,0,0,.892-1.132ZM9.169,9.081V9.057l.014-.033V8.988a.162.162,0,0,0,0-.033V8.818l-.014-.033a.165.165,0,0,0,0-.031l-.024-.033a.083.083,0,0,0,0-.019L8.18,7.49a.458.458,0,0,1-.052-.477L11.039.967a.458.458,0,0,1,.606-.21l4.592,2.229a.455.455,0,0,1,.215.606L13.518,9.634a.458.458,0,0,1-.405.255H11.47l-.036.012-.031.014-.029.017-.029.019-.026.021L11.3,10a.207.207,0,0,0-.021.026.16.16,0,0,0-.021.033.083.083,0,0,0-.012.019l-.372.765H8.311ZM8.2,17.663v-.789a.608.608,0,0,1,.62-.608h2.186a.555.555,0,0,1,.126.014h-.427a.358.358,0,0,0-.3.162.715.715,0,0,0-.26.544v.56a.715.715,0,0,0,.715.715h.308a.622.622,0,0,1-.165.024H8.821a.608.608,0,0,1-.62-.613Zm3.4-.134h-.741v-.551h.751Zm6.142,4.718-3.1,2.031a.463.463,0,0,1-.379.057.458.458,0,0,1-.286-.253l-2.332-5.269a1.33,1.33,0,0,0,.658-1.142V17h2.775l2.8,4.64a.451.451,0,0,1-.136.613Zm-2.127-5.96H12.176a1.323,1.323,0,0,0-1.192-.73H8.821a1.326,1.326,0,0,0-1.192.73H5.29a.455.455,0,0,1-.434-.331h.5a.358.358,0,1,0,0-.715H3.39a.455.455,0,0,1-.453-.463.358.358,0,0,0-.358-.358H.911a.181.181,0,0,1-.2-.181V13.6A.181.181,0,0,1,.9,13.422H2.58a.358.358,0,0,0,.358-.358h0a.453.453,0,0,1,.453-.453H5.355a.358.358,0,1,0,0-.715h-.5a.453.453,0,0,1,.434-.331H15.618a.455.455,0,0,1,.453.453v.348h-.405a.358.358,0,1,0,0,.715h1.962a.455.455,0,0,1,.455.453V14.3a.455.455,0,0,1-.455.453H15.666a.358.358,0,0,0,0,.715h.405v.348a.455.455,0,0,1-.453.463Z" transform="translate(0 0.004)"/><path class="a" d="M48.406,19.44h1.173l2.427-5.007a.358.358,0,0,0-.641-.312l-2.232,4.6h-.715a.358.358,0,0,0,0,.715Z" transform="translate(-36.602 -10.618)"/></g></g></svg>