<svg xmlns="http://www.w3.org/2000/svg" width="16.026" height="13.084" viewBox="0 0 16.026 13.084"><defs><style>.a{fill:#ff4a53;}</style></defs><path class="a" d="M16.026,8.009a7.937,7.937,0,0,1-1.618,4.826.626.626,0,0,1-1-.755A6.759,6.759,0,1,0,1.252,8.009,6.7,6.7,0,0,0,2.616,12.08a.626.626,0,0,1-1,.755A8.009,8.009,0,0,1,8.013,0,8.007,8.007,0,0,1,16.026,8.009Zm-4.046-3.77a.626.626,0,0,1,0,.885L9.939,7.165a2.191,2.191,0,1,1-.885-.885l2.041-2.041A.626.626,0,0,1,11.979,4.239ZM8.95,8.206a.938.938,0,1,0-.938.938A.939.939,0,0,0,8.95,8.206Zm0,0"/></svg>