<svg xmlns="http://www.w3.org/2000/svg" width="15.155" height="18.515" viewBox="0 0 15.155 18.515"><defs><style>.a{fill:#ff4a53;}</style></defs><path class="a" d="M29.257,24.454v-2a1.556,1.556,0,0,0-2.5-1.236,1.647,1.647,0,0,0-.214-.285,1.53,1.53,0,0,0-1.1-.46,1.576,1.576,0,0,0-.8.248,1.559,1.559,0,0,0-2.144-.794V15.779a1.559,1.559,0,0,0-1.567-1.559H20.7a1.561,1.561,0,0,0-1.559,1.559v8.469a.134.134,0,0,1-.049.1.131.131,0,0,1-.111.031.123.123,0,0,1-.091-.063c-.674-1.142-2.429-3.728-4.139-3.072a.985.985,0,0,0-.6.659c-.491,1.639,2.543,6.02,3.189,6.922l.477.8a6.309,6.309,0,0,0,5.033,3.077l1.427.023h.069a4.313,4.313,0,0,0,4.1-2.983c.04-.128.088-.26.14-.394A15.978,15.978,0,0,0,29.257,24.454ZM27.8,29.044c-.057.148-.111.285-.157.44a3.477,3.477,0,0,1-3.354,2.4l-1.4-.026A5.449,5.449,0,0,1,18.555,29.2l-.485-.819-.02-.031c-1.442-2.018-3.351-5.275-3.074-6.2a.131.131,0,0,1,.086-.106c.842-.323,2.161,1.142,3.091,2.709A.994.994,0,0,0,20,24.245V15.779a.7.7,0,0,1,.7-.7h.223a.7.7,0,0,1,.7.7V22.8h.856V21.316a.7.7,0,0,1,1.2-.491.679.679,0,0,1,.2.491v1.524h.856v-.794a.7.7,0,0,1,.7-.7.682.682,0,0,1,.494.206.691.691,0,0,1,.206.5V23.12H27v-.662a.7.7,0,0,1,1.2-.491.679.679,0,0,1,.2.491v2h0v.128h0A15,15,0,0,1,27.8,29.044Z" transform="translate(-14.103 -14.22)"/></svg>